<svg width="68" height="65" xmlns="http://www.w3.org/2000/svg" xmlns:xlink="http://www.w3.org/1999/xlink" xml:space="preserve" overflow="hidden"><defs><clipPath id="clip0"><rect x="669" y="56" width="66" height="65"/></clipPath><clipPath id="clip1"><rect x="669" y="56" width="66" height="65"/></clipPath><clipPath id="clip2"><rect x="669" y="56" width="66" height="65"/></clipPath></defs><g transform="translate(-668 -56)"><g><g clip-path="url(#clip0)"><g clip-path="url(#clip1)"><g clip-path="url(#clip2)"><path d="M10.7256 64.4198C5.66262 63.4453 1.29079 59.2273 0.55808 54.0715-0.179514 48.0914-0.0989157 39.6957 0.297968 33.4274 0.520224 30.8019 1.23584 28.1324 2.70492 25.8878 3.20194 25.0977 3.76735 24.3406 4.34863 23.6225 9.05506 18.0491 15.3991 11.8064 20.9359 6.64934 27.5853 0.0928098 34.6938-2.94549 42.5643 3.7991L42.5838 3.81497C49.4115 9.97217 55.3721 17.2309 62.0592 23.6225 64.3783 25.9562 65.4725 29.1997 65.6971 32.4138 66.1026 37.9507 66.0464 44.252 65.8437 49.6069 65.7912 54.5001 64.4442 59.358 60.2177 62.2656 58.5276 63.4746 56.4589 64.283 54.3573 64.5028M37.1435 56.4552C37.5391 57.4334 38.8079 57.1635 40.056 57.2173 41.7547 57.2209 43.5461 57.2148 45.5391 57.2173 47.3318 57.2148 48.9425 57.2197 50.4495 57.2173 51.9808 57.2075 52.854 57.2612 53.9323 56.9474 57.1452 55.8617 58.2003 52.661 58.2663 49.5409 58.4531 44.2007 58.6314 37.1313 57.9121 31.7068 57.7118 30.6639 57.4493 30.002 56.8082 29.2742 53.2216 25.5349 41.5043 13.6614 37.6466 9.6913 36.5341 8.47622 35.3105 7.71176 33.5141 7.74474 31.1462 7.74107 29.2583 9.44829 27.5621 10.9308 21.8714 16.1782 15.4992 22.2304 10.584 28.1299 8.46523 30.7689 8.11475 33.3175 8.10621 36.5903 8.00851 39.4833 7.9389 42.0514 7.87418 45.0531 7.88761 48.5859 7.15002 53.7064 10.2775 56.051 11.3521 56.9059 12.5708 57.1916 13.9105 57.2087 17.5398 57.2392 23.796 57.2087 27.0077 57.216 28.6978 57.2392 29.1435 56.9926 29.1435 55.0216 29.1679 53.3779 29.1508 51.4924 29.1545 49.8951 29.1154 48.5615 29.2803 47.2182 28.4096 46.2071 25.806 43.507 21.6503 39.7971 18.5974 36.7796 17.4165 35.6121 16.7913 34.6877 17.3212 33.3029 17.9282 31.653 20.0555 29.6698 21.8518 29.9519 22.6212 30.1034 23.3783 30.7359 24.2795 31.5651 25.0892 32.3149 25.9171 33.0989 26.7256 33.8512 27.2543 34.2493 28.8333 36.1494 29.0568 34.9808 29.2901 32.6422 29.0922 29.1008 29.1557 26.5619 29.1618 25.2247 29.1728 24.2612 29.5978 23.6445 30.4648 22.543 32.1122 22.5699 33.4152 22.5711 34.7512 22.6651 36.4743 22.8679 36.6965 24.3357 36.9237 28.5378 36.7051 35.5486 36.7869 39.9913 36.8333 40.509 36.7356 41.2002 37.1325 41.4738 37.8261 41.5898 38.7896 40.4089 39.6322 39.6823 40.862 38.5075 42.2456 37.0788 43.4106 36.0591 44.3521 35.2116 45.5525 34.3897 46.8433 34.9832 48.3344 35.6646 49.7009 37.1056 50.1124 38.7249 50.4763 40.0731 49.475 41.0867 48.3686 42.1076 47.3147 43.0894 46.3878 43.9442 45.2375 45.0103 43.424 46.6907 41.5458 48.4309 39.736 50.1063 38.8519 50.9367 37.715 51.855 37.3816 52.7856 36.9823 53.9079 36.7735 55.3098 37.141 56.4406L37.1459 56.454Z" fill="#2F5597" fill-rule="nonzero" fill-opacity="1" transform="matrix(1 0 0 1.00723 669 56.0154)"/></g></g></g></g></g></svg>
